<svg xmlns="http://www.w3.org/2000/svg" xmlns:xlink="http://www.w3.org/1999/xlink" width="384.9997253417969" height="80.999755859375" viewBox="0 0 384.9997253417969 80.999755859375" fill="none"><path d="M3.184 23.8939C-0.349237 25.1917 -0.349237 31.7954 0.393732 40.6825C1.53295 51.7215 7.31161 60.5429 14.0313 60.4772C19.6779 60.4115 22.8645 53.8735 24.2678 50.588C25.8693 54.6127 29.3365 56.124 33.4476 55.7133C44.9719 54.6127 47.0522 40.4853 46.5074 29.2327C46.0451 20.9534 44.361 17.8816 40.6957 18.0787C37.179 18.2923 36.3039 21.4298 36.9809 27.1629C38.1861 37.282 35.9737 46.2348 32.391 46.1691C29.5347 46.1034 28.5936 36.05 28.7917 30.3169C28.7917 26.5551 27.0416 24.3703 23.657 24.6496C20.619 24.9288 19.3477 26.1444 18.935 30.859C17.8618 42.3087 15.4677 51.393 12.9416 51.6558C9.29286 52.0665 7.9555 41.0274 7.88945 30.3169C7.82341 25.4709 6.42004 22.7604 3.184 23.8939Z"   fill="#ffffff" fill-opacity="1"></path><path d="M73.7556 14.142C63.3045 13.9284 57.79 30.1913 57.79 40.3762C57.79 50.9388 64.5097 57.6247 71.2295 57.2797C81.3503 56.8033 88.0536 46.4707 87.8555 36.2858C87.6573 25.871 82.5061 14.3391 73.7556 14.142ZM72.3357 48.5076C68.3401 48.2941 66.9368 42.3803 67.7458 37.0908C68.7529 31.1277 71.2955 26.0845 73.9537 26.0845C77.7346 26.0845 80.0295 31.6041 79.8314 37.0908C79.5672 42.8567 75.9184 48.7048 72.3357 48.5076Z"   fill="#ffffff" fill-opacity="1"></path><path d="M100.84 16.7712C98.4458 18.6604 98.9246 23.6871 99.6676 35.0054L99.9978 52.5825C100.064 56.3607 102.012 57.5763 104.852 57.4449C107.692 57.3135 109.095 55.3258 109.161 51.7611C109.359 37.9952 113.223 28.7631 122.947 28.7631C127.966 28.7631 129.733 26.7918 129.056 23.7528C127.966 20.5495 124.516 20.0731 119.827 20.2867C114.312 20.5495 111.307 22.685 108.154 26.0526C107.758 20.6809 107.015 17.0505 103.63 16.6398C102.408 16.4427 101.467 16.2291 100.84 16.7712Z"   fill="#ffffff" fill-opacity="1"></path><path d="M142.109 22.4371C135.389 24.7205 131.295 37.0737 131.08 51.2503C131.08 54.7658 132.038 55.8499 134.514 55.8499C137.057 55.8499 138.196 54.5522 139.005 49.969C140.904 39.932 144.553 34.4946 146.435 34.6917C148.383 34.9053 147.904 41.2955 149.473 46.7329C150.48 50.5111 154.822 51.5953 157.596 48.4577C161.377 44.1045 162.78 36.8108 164.893 37.1394C166.643 37.4187 166.908 43.2175 167.651 50.5111C168.063 54.7 170.012 55.7185 172.785 55.505C175.691 55.2421 177.227 53.468 176.484 49.5091C174.304 36.7451 172.488 28.8273 165.422 28.8273C161.377 28.8273 159.296 30.7821 156.324 34.7574C154.442 26.3467 151.041 20.2851 142.109 22.4371Z"   fill="#ffffff" fill-opacity="1"></path><path d="M213.52 0C202.672 0 197.026 14.2423 195.622 27.8605C191.445 28.4683 185.667 29.3389 181.952 30.4231C178.237 31.6387 177.098 34.267 177.907 37.0432C178.848 40.1808 181.242 40.8215 184.758 39.5237C188.143 38.226 191.511 37.3225 194.846 36.5504C194.846 46.1603 197.24 56.4273 200.559 74.7764C201.302 78.9489 203.052 81.1994 206.239 80.9859C209.557 80.6573 210.762 77.5197 210.019 71.3924C208.137 57.0351 204.984 48.0494 205.595 36.419C211.968 35.6469 217.548 35.5812 223.261 35.1705C228.643 34.7599 230.212 32.7886 229.535 29.4703C228.858 26.382 226.15 26.1849 219.711 26.382C214.857 26.5299 210.399 26.3163 206.47 26.3163C207.675 18.1849 211.126 9.64276 214.395 9.77417C217.548 9.90557 219.942 14.1602 222.782 18.1849C224.466 20.7475 227.636 19.6633 227.306 15.9672C226.629 7.81934 221.841 0 213.52 0Z"   fill="#ffffff" fill-opacity="1"></path><path d="M244.866 21.3661C236.594 20.8897 231.212 35.0992 231.146 46.3354C231.146 55.1075 236.727 58.8858 243.1 58.0808C251.305 56.9966 258.223 47.0089 258.025 39.9453C257.678 31.4688 252.362 21.8261 244.866 21.3661ZM245.064 49.0459C241.482 49.8508 239.533 47.0089 239.731 41.5058C239.946 35.7727 242.588 30.3189 245.262 30.4504C249.043 30.6475 251.008 35.5099 251.008 39.9453C251.008 43.4442 248.366 48.2245 245.064 49.0459Z"   fill="#ffffff" fill-opacity="1"></path><path d="M266.523 25.1586C263.683 25.9306 263.683 29.3475 265.086 36.0333C266.671 43.5898 267.067 47.368 267.678 55.0067C268.091 59.5406 269.973 60.7562 272.813 60.559C275.653 60.3619 277.238 58.5385 277.386 53.9389C278.129 40.6329 283.776 32.3865 290.595 30.3003C294.574 29.0189 294.987 26.3413 293.847 23.8444C292.262 20.6247 287.408 20.7725 284.156 22.8916C280.655 25.0928 278.063 28.1483 274.415 32.8629C272.021 28.0826 270.072 24.3208 266.523 25.1586Z"   fill="#ffffff" fill-opacity="1"></path><path d="M315.349 19.3266C306.202 19.8687 298.839 34.1931 298.839 44.5258C298.839 55.1213 306.846 59.8688 315.547 59.1295C325.222 58.2918 331.595 54.5135 337.902 50.0946C343.153 58.1275 353.075 60.0659 366.399 59.8031C377.99 59.5238 384.627 57.9796 384.974 53.6922C385.304 50.0946 382.464 49.6182 379.343 50.226C371.072 51.9673 354.726 50.3574 349.542 44.9858C348.139 43.5073 348.816 40.994 352.002 40.994C362.866 40.994 375.794 33.5853 376.008 24.9447C376.14 19.7373 371.484 16.2383 365.706 16.4354C355.469 16.8461 346.636 29.1336 337.902 43.918C332.058 48.8626 326.477 51.3595 318.073 51.3595C311.964 51.3595 308.332 48.0576 308.943 41.5361C309.554 35.6387 313.599 29.0679 316.571 29.0022C320.599 28.9365 321.54 26.6531 320.93 23.4169C320.055 19.803 317.661 19.1295 315.349 19.3266ZM355.205 34.3245C358.177 29.265 363.229 24.9447 365.937 25.3554C368.182 25.7168 366.597 29.4786 362.817 31.8441C360.423 33.3225 357.962 34.1931 355.205 34.3245Z"   fill="#ffffff" fill-opacity="1"></path></svg>